<?xml version="1.0" encoding="UTF-8" ?>
<!DOCTYPE svg PUBLIC "-//W3C//DTD SVG 1.1//EN" "http://www.w3.org/Graphics/SVG/1.1/DTD/svg11.dtd">
<svg width="600pt" height="77pt" viewBox="0 0 600 77" version="1.1" xmlns="http://www.w3.org/2000/svg">
<g id="#000000ff">
<path fill="#000000" opacity="1.00" d=" M 230.14 0.00 L 230.61 0.00 C 241.59 2.23 252.90 -0.37 264.02 0.10 C 268.07 0.34 273.43 -1.03 276.21 2.78 C 278.67 5.98 276.01 11.06 272.05 11.07 C 260.78 11.18 249.50 11.16 238.23 11.03 C 238.06 18.38 238.15 25.74 238.18 33.10 C 247.16 33.15 256.14 33.05 265.12 33.12 C 267.96 32.85 270.87 35.07 270.89 38.01 C 271.26 41.26 268.09 43.97 264.96 43.66 C 256.03 43.70 247.09 43.63 238.16 43.67 C 238.16 51.02 238.09 58.37 238.20 65.72 C 249.48 65.66 260.77 65.62 272.05 65.71 C 275.79 65.65 278.52 70.34 276.47 73.54 C 275.34 75.96 272.47 76.55 270.05 76.45 C 257.36 76.38 244.67 76.49 231.98 76.40 C 228.57 76.61 225.74 73.36 226.12 70.02 C 226.12 48.66 226.03 27.29 226.16 5.93 C 225.97 3.15 228.32 1.36 230.59 0.35 C 230.48 0.26 230.25 0.09 230.14 0.00 Z" />
<path fill="#000000" opacity="1.00" d=" M 4.14 11.00 C -0.58 9.26 0.02 1.60 5.01 0.78 C 13.65 0.34 22.34 0.70 31.00 0.67 C 39.23 0.83 48.24 3.77 52.75 11.13 C 57.09 17.92 56.94 26.25 56.81 34.00 C 56.72 40.34 56.97 46.68 56.69 53.02 C 56.32 60.32 53.36 68.01 47.03 72.13 C 42.12 75.54 36.05 76.26 30.28 77.00 L 5.13 77.00 C 3.30 76.18 1.18 75.24 0.63 73.08 C -0.62 69.68 2.38 65.89 5.93 66.09 C 14.30 65.67 22.69 66.16 31.06 65.86 C 35.08 65.69 39.46 64.45 42.00 61.11 C 44.76 57.35 44.73 52.45 44.80 47.99 C 44.71 40.65 44.88 33.30 44.72 25.96 C 44.59 21.46 43.42 16.30 39.29 13.81 C 33.79 10.45 27.09 11.52 20.98 11.35 C 15.37 11.15 9.71 11.77 4.14 11.00 Z" />
<path fill="#000000" opacity="1.00" d=" M 79.24 1.34 C 82.97 -0.77 88.00 2.77 87.59 6.94 C 87.65 27.98 87.61 49.02 87.61 70.05 C 87.97 73.35 85.36 76.62 81.99 76.70 C 78.39 76.91 75.44 73.50 75.78 69.99 C 75.70 49.34 75.75 28.68 75.75 8.02 C 75.61 5.37 76.58 2.40 79.24 1.34 Z" />
<path fill="#000000" opacity="1.00" d=" M 113.46 7.32 C 118.89 2.15 126.72 0.66 133.97 0.58 C 142.26 0.34 151.13 2.48 156.90 8.82 C 163.39 1.59 173.76 0.02 182.99 0.70 C 190.41 1.13 198.31 3.84 202.74 10.16 C 206.62 15.60 207.49 22.51 207.46 29.03 C 207.40 43.01 207.53 57.00 207.41 70.98 C 207.59 74.02 205.00 76.03 202.44 77.00 L 200.68 77.00 C 198.07 76.10 195.47 74.04 195.62 70.99 C 195.48 56.68 195.61 42.35 195.56 28.03 C 195.45 23.82 195.17 19.12 192.27 15.79 C 189.23 12.32 184.34 11.54 179.97 11.42 C 175.25 11.37 169.99 11.93 166.45 15.39 C 163.46 18.42 163.00 22.97 162.82 27.01 C 162.65 41.68 162.95 56.36 162.70 71.03 C 162.78 75.18 157.71 78.13 154.13 76.01 C 151.45 74.77 150.74 71.64 150.86 68.95 C 150.88 55.30 150.86 41.65 150.88 28.00 C 150.87 23.71 150.46 18.97 147.49 15.61 C 144.35 12.21 139.43 11.50 135.03 11.41 C 130.53 11.41 125.57 11.98 122.07 15.10 C 118.90 18.15 118.32 22.84 118.21 27.02 C 118.08 41.70 118.37 56.40 118.09 71.07 C 118.13 75.64 112.09 78.44 108.63 75.44 C 106.21 73.78 106.23 70.63 106.23 68.02 C 106.29 54.32 106.23 40.62 106.27 26.93 C 106.30 19.88 108.21 12.33 113.46 7.32 Z" />
<path fill="#000000" opacity="1.00" d=" M 312.18 1.23 C 321.04 0.10 330.90 0.48 338.44 5.82 C 344.99 10.49 347.43 18.94 347.55 26.64 C 347.59 41.46 347.56 56.29 347.57 71.11 C 347.59 75.14 342.62 78.06 339.10 76.06 C 336.73 75.04 335.50 72.42 335.66 69.93 C 335.61 55.60 335.69 41.27 335.62 26.94 C 335.53 22.60 334.76 17.71 331.25 14.77 C 327.55 11.77 322.53 11.37 317.96 11.49 C 313.90 11.66 309.49 12.52 306.59 15.59 C 303.77 18.66 303.16 23.02 303.10 27.02 C 303.00 41.36 303.15 55.70 303.04 70.04 C 303.20 72.77 301.58 75.51 298.93 76.35 C 295.38 77.76 291.03 74.84 291.02 71.03 C 291.16 56.67 291.06 42.31 291.09 27.95 C 291.01 21.48 292.23 14.60 296.42 9.45 C 300.21 4.60 306.22 2.10 312.18 1.23 Z" />
<path fill="#000000" opacity="1.00" d=" M 368.02 11.98 C 371.12 5.54 378.04 1.87 384.93 1.04 C 392.58 0.10 400.85 0.32 407.76 4.11 C 414.37 7.77 417.83 15.62 417.32 22.98 C 416.48 27.16 410.84 29.23 407.61 26.34 C 404.18 23.69 406.14 18.61 403.69 15.37 C 401.16 11.62 396.12 11.47 392.05 11.32 C 387.64 11.41 382.09 11.40 379.34 15.49 C 376.79 19.76 376.75 26.70 381.75 29.23 C 390.95 33.91 402.11 34.07 410.49 40.51 C 420.88 48.35 419.21 66.67 408.05 73.04 C 404.53 75.22 400.35 75.84 396.44 77.00 L 390.63 77.00 C 385.08 76.40 379.22 75.81 374.46 72.58 C 368.31 68.73 365.32 61.10 365.84 54.03 C 366.18 49.81 371.79 47.32 375.12 49.98 C 379.09 52.58 376.80 58.18 379.24 61.71 C 381.65 65.64 386.83 65.86 390.94 65.96 C 395.40 65.92 401.01 66.02 403.82 61.87 C 405.95 58.00 406.39 52.30 402.99 49.00 C 400.01 46.47 396.09 45.53 392.45 44.37 C 384.96 42.14 376.74 40.48 370.86 34.96 C 364.75 29.10 364.57 19.27 368.02 11.98 Z" />
<path fill="#000000" opacity="1.00" d=" M 439.45 1.45 C 444.30 -1.30 449.31 4.08 448.16 8.98 C 448.11 29.30 448.19 49.64 448.12 69.96 C 448.45 73.43 445.60 76.87 442.02 76.70 C 438.58 76.67 435.92 73.40 436.24 70.05 C 436.20 49.35 436.23 28.63 436.23 7.93 C 436.02 5.38 437.05 2.63 439.45 1.45 Z" />
<path fill="#000000" opacity="1.00" d=" M 469.43 1.62 C 472.54 -0.65 477.06 1.26 478.28 4.72 C 485.78 21.71 493.29 38.70 500.59 55.78 C 500.76 55.75 501.10 55.70 501.27 55.68 C 508.62 38.37 516.15 21.13 523.90 4.00 C 526.39 -2.30 536.89 1.37 534.89 7.82 C 525.52 29.63 515.91 51.36 506.41 73.12 C 504.69 77.63 497.59 77.89 495.58 73.49 C 486.17 52.14 476.93 30.72 467.52 9.38 C 465.93 6.75 466.86 3.22 469.43 1.62 Z" />
<path fill="#000000" opacity="1.00" d=" M 560.19 4.13 C 561.95 -0.36 569.09 -0.55 571.01 3.91 C 579.49 23.13 587.80 42.44 596.28 61.66 C 597.36 64.22 598.34 66.86 600.00 69.12 L 600.00 71.76 C 598.99 74.63 596.27 77.26 593.01 76.59 C 590.14 76.23 588.62 73.58 587.61 71.19 C 580.35 54.48 572.91 37.86 565.76 21.11 C 557.91 38.29 550.70 55.78 542.82 72.95 C 541.29 77.10 535.15 77.96 532.64 74.28 C 530.38 71.62 532.01 68.20 533.26 65.49 C 542.41 45.12 551.09 24.53 560.19 4.13 Z" />
</g>
</svg>
